<?xml version="1.0" standalone="no"?><!DOCTYPE svg PUBLIC "-//W3C//DTD SVG 1.1//EN" "http://www.w3.org/Graphics/SVG/1.1/DTD/svg11.dtd"><svg t="1508145914142" class="icon" style="" viewBox="0 0 1024 1024" version="1.1" xmlns="http://www.w3.org/2000/svg" p-id="9498" xmlns:xlink="http://www.w3.org/1999/xlink" width="200" height="200"><defs><style type="text/css"></style></defs><path d="M543.864 832.16h34.012l0.254-0.539h-33.987l-0.28 0.539z m-95.02 0h34.012l0.254-0.539h-33.988l-0.278 0.539z m192.062 0h33.98l0.254-0.539h-33.955l-0.279 0.539z m-62.559-259.854l382.07-292.55c0-64.785-60.975-69.543-60.975-69.543H128.287c-66.17 0-63.673 65.427-63.673 65.427l387.738 296.666c67.046 65.832 125.995 0 125.995 0zM337.053 407.743c-44.609 0-80.78-34.418-80.78-80.308 0-45.855 36.171-87.124 80.78-87.124 26.352 0 50.176 13.025 64.955 33.135l161.696-0.237c9.38 0 17.005 8.167 17.005 17.817s-7.625 16.094-17.005 16.094l-147.558 0.27c1.08 5.534 1.687 15.318 1.687 20.044 0 4.217-0.304 7.323-0.877 11.37l112.397 0.237c8.842 0 16.026 9.752 16.026 18.829 0 9.11-7.185 15.082-16.026 15.082l-126.535-0.37c-14.644 21.09-30.64 35.161-65.765 35.161z m14.746 424.417h34.012l0.254-0.539h-33.987l-0.279 0.539z m-14.983-557.937c-26.252 0-47.544 21.866-47.544 48.86s21.292 48.858 47.544 48.858c26.219 0 47.51-21.865 47.51-48.859s-21.291-48.859-47.51-48.859z m496.12 557.937h34.013l0.254-0.539h-33.988l-0.28 0.539z m-97.01 0h34.012l0.254-0.539h-33.987l-0.28 0.539z m-479.146 0h34.012l0.254-0.539H257.06l-0.279 0.539zM99.91 336.613l-0.916 0.2 30.235 23.8 0.037-0.008-29.356-23.992z m-34.687 7.559l33.772-7.359-33.772-26.586v33.945z m895.261 0v-28.817l-350.452 272.54c-58.983 54.495-98.664 48.354-98.664 48.354-45.013 0-96.03-50.411-96.03-50.411l-286.11-225.225-64.007 15.446v66.845l64.043-34.959v34.959l-64.043 31.853v66.878l64.043-34.992v34.992L65.222 573.52v66.845l64.043-34.992v34.992l-64.043 31.853v61.717l64.043-34.959v34.959l-64.043 31.887v1.012c0 17.473 4.515 30.228 11.105 39.547l21.423-40.052h31.01l-25.57 60.329c12.868 4.96 24.05 4.963 24.05 4.963h32.807l33.735-65.292h31.009l-30.755 65.292h63.023l33.733-65.292h31.01l-30.756 65.292h61.032l33.733-65.292h31.01l-30.756 65.292h63.057l33.734-65.292h31.009L483.11 831.62h61.033l33.733-65.292h31.009L578.13 831.62h63.055l33.7-65.292h31.01L675.14 831.62h61.065l33.733-65.292h31.01l-30.756 65.292h63.022l33.734-65.292h31.01l-30.756 65.292h32.274c59.997 0 61.007-60.67 61.007-60.67l-64.01-31.887v-34.959l64.01 34.959v-66.846l-64.01-31.852v-34.992l64.01 34.992V573.52l-64.01-31.886v-34.992l64.01 34.992v-66.878l-64.01-31.852v-34.959l64.01 34.959V376.06l-48.015-21.595 18.998-16.466 29.017 6.173zM159.77 832.16h34.013l0.254-0.539h-33.989l-0.278 0.539z m-70.322-12.763l-8.777-7.65a54.854 54.854 0 0 0 8.777 7.65z m12.284 10.705l1.46-3.444c-4.511-1.738-9.228-4.089-13.744-7.261l12.284 10.705zM75.75 807.459l4.92 4.288a52.86 52.86 0 0 1-4.343-5.366l-0.577 1.078z" fill="#ffffff" p-id="9499"></path></svg>