<?xml version="1.0" standalone="no"?><!DOCTYPE svg PUBLIC "-//W3C//DTD SVG 1.1//EN" "http://www.w3.org/Graphics/SVG/1.1/DTD/svg11.dtd"><svg t="1508145225578" class="icon" style="" viewBox="0 0 1024 1024" version="1.1" xmlns="http://www.w3.org/2000/svg" p-id="4341" xmlns:xlink="http://www.w3.org/1999/xlink" width="200" height="200"><defs><style type="text/css"></style></defs><path d="M875.175936 247.416832" p-id="4342" fill="#ffffff"></path><path d="M903.489536 117.798912 125.989888 117.798912c-51.463168 0-93.179904 41.719808-93.179904 93.185024l0 575.474688c0 51.46624 41.716736 93.182976 93.179904 93.182976l777.499648 0c51.468288 0 93.190144-41.716736 93.190144-93.182976L996.67968 210.983936C996.67968 159.517696 954.957824 117.798912 903.489536 117.798912zM904.646656 225.485824 526.856192 610.10432c-3.557376 3.598336-8.38144 5.64224-13.451264 5.64224l-0.04096 0c-5.069824-0.02048-9.894912-2.064384-13.451264-5.6832L124.778496 225.83296c-7.236608-7.441408-7.114752-19.380224 0.326656-26.637312 7.482368-7.277568 19.339264-7.114752 26.657792 0.306176l361.68192 370.471936 364.29824-370.900992c7.277568-7.441408 19.216384-7.523328 26.657792-0.22528C911.802368 206.12608 911.924224 218.064896 904.646656 225.485824z" p-id="4343" fill="#ffffff"></path></svg>