<?xml version="1.0" standalone="no"?><!DOCTYPE svg PUBLIC "-//W3C//DTD SVG 1.1//EN" "http://www.w3.org/Graphics/SVG/1.1/DTD/svg11.dtd"><svg t="1508146528181" class="icon" style="" viewBox="0 0 1025 1024" version="1.1" xmlns="http://www.w3.org/2000/svg" p-id="10215" xmlns:xlink="http://www.w3.org/1999/xlink" width="200.1953125" height="200"><defs><style type="text/css"></style></defs><path d="M282.09056 394.949356h448.998746c25.873985 0 49.354972-21.177988 49.354972-49.369972V49.370552C780.444278 23.510567 759.31129 0.00058 731.090306 0.00058H300.90455a63.202964 63.202964 0 0 0-63.473964 63.473964v286.783838c0.015 25.859985 18.814989 44.689975 44.659974 44.689974z" fill="#ffffff" p-id="10216"></path><path d="M942.674186 197.482468h-37.629979c-32.947981 0-58.761967 18.814989-58.761966 63.459964v117.539934a63.217964 63.217964 0 0 1-63.474964 63.473964h-535.969697a63.187964 63.187964 0 0 1-63.473964-63.473964v-117.539934c0-37.629979-16.450991-63.459964-58.746967-63.459964H84.623672A84.275952 84.275952 0 0 0 0.00072 282.10442v524.199703a84.289952 84.289952 0 0 0 84.622952 84.636952h61.125965c28.206984 0 37.629979-16.436991 37.629979-42.325976v-42.325976a63.217964 63.217964 0 0 1 63.473964-63.474964h533.635698a63.202964 63.202964 0 0 1 63.443964 63.474964v49.354972c0 23.495987 9.407995 35.28198 32.933981 35.28198h63.473964c47.006973 0 84.666952-37.629979 84.666952-84.636952v-524.199703c2.272999-47.006973-35.35698-84.606952-82.333953-84.606952z" fill="#ffffff" p-id="10217"></path><path d="M282.09056 394.949356h448.998746c25.873985 0 49.354972-21.177988 49.354972-49.369972V49.370552C780.444278 23.510567 759.31129 0.00058 731.090306 0.00058H300.90455a63.202964 63.202964 0 0 0-63.473964 63.473964v286.783838c0.015 25.859985 18.814989 44.689975 44.659974 44.689974z m-7.029996 573.569675h465.435737a42.099976 42.099976 0 0 0 42.310976-42.311976V836.890106c0-18.814989-16.465991-35.28198-35.25098-35.28198H277.393563c-21.147988 0-39.947977 16.466991-39.947977 39.932977v89.34895c0 18.859989 16.436991 37.629979 37.614978 37.629978z" fill="#ffffff" p-id="10218"></path></svg>