<?xml version="1.0" standalone="no"?><!DOCTYPE svg PUBLIC "-//W3C//DTD SVG 1.1//EN" "http://www.w3.org/Graphics/SVG/1.1/DTD/svg11.dtd"><svg t="1508218563080" class="icon" style="" viewBox="0 0 1024 1024" version="1.1" xmlns="http://www.w3.org/2000/svg" p-id="2561" xmlns:xlink="http://www.w3.org/1999/xlink" width="200" height="200"><defs><style type="text/css"></style></defs><path d="M685.719607 883.552578c-7.858585 0-15.119961-2.931309-20.447403-8.25267l-356.506812-356.18449c-1.621342-1.599449-2.487356-3.693936-2.487356-5.94776 0-2.251392 0.866013-4.345879 2.438703-5.896675l356.556681-356.236791c5.325009-5.318928 12.586385-8.247804 20.44497-8.247804 8.348758 0 16.494392 3.350937 22.343632 9.195311 5.598679 5.597463 8.691758 13.024257 8.706354 20.909601 0.015812 7.893858-3.065104 15.326734-8.674729 20.930278L388.784055 513.168875l319.302294 319.344865c5.615708 5.60841 8.696623 13.042502 8.682027 20.935144-0.014596 7.885344-3.107674 15.313354-8.708786 20.91325C702.210351 880.201642 694.065933 883.552578 685.719607 883.552578L685.719607 883.552578z" p-id="2562" fill="#ffffff"></path></svg>