<?xml version="1.0" standalone="no"?><!DOCTYPE svg PUBLIC "-//W3C//DTD SVG 1.1//EN" "http://www.w3.org/Graphics/SVG/1.1/DTD/svg11.dtd"><svg t="1508908065431" class="icon" style="" viewBox="0 0 1024 1024" version="1.1" xmlns="http://www.w3.org/2000/svg" p-id="1845" xmlns:xlink="http://www.w3.org/1999/xlink" width="200" height="200"><defs><style type="text/css"></style></defs><path d="M756.595 1.205H267.378S197.124 0.086 197.124 73.866l-0.365 876.704s-6.592 72.318 66.969 72.318h496.127s68.087 1.07 68.087-69.377V73.866c0.026 0 2.14-72.661-71.347-72.661M441.527 36.477h140.457v35.174H441.527V36.477m-52.69 0c9.731 0 17.587 7.833 17.587 17.563 0 9.731-7.833 17.637-17.587 17.637-9.681 0-17.539-7.881-17.539-17.637 0.024-9.73 7.858-17.563 17.539-17.563m122.967 915.916c-19.436 0-35.126-15.764-35.126-35.225 0-19.434 15.715-35.246 35.126-35.246 19.387 0 35.127 15.813 35.127 35.246 0 19.461-15.741 35.225-35.127 35.225m247.297-140.944H264.458V106.876h494.643v704.573m0 0z" p-id="1846" fill="#ffffff"></path></svg>