<?xml version="1.0" standalone="no"?><!DOCTYPE svg PUBLIC "-//W3C//DTD SVG 1.1//EN" "http://www.w3.org/Graphics/SVG/1.1/DTD/svg11.dtd"><svg t="1508147115674" class="icon" style="" viewBox="0 0 1024 1024" version="1.1" xmlns="http://www.w3.org/2000/svg" p-id="10930" xmlns:xlink="http://www.w3.org/1999/xlink" width="200" height="200"><defs><style type="text/css"></style></defs><path d="M582.162963 512.948148c-12.325926 0-24.651852 12.325926-24.651852 24.651852s12.325926 24.651852 24.651852 24.651852c18.962963 0 30.340741-12.325926 30.340741-24.651852s-11.377778-24.651852-30.340741-24.651852zM502.518519 396.325926c18.014815 0 30.340741-12.325926 30.34074-30.340741 0-18.014815-12.325926-30.340741-30.34074-30.340741-18.014815 0-36.977778 12.325926-36.977778 30.340741 0 18.014815 18.962963 30.340741 36.977778 30.340741zM330.903704 334.696296c-18.014815 0-36.977778 12.325926-36.977778 30.340741 0 18.014815 18.014815 30.340741 36.977778 30.340741s30.340741-12.325926 30.34074-30.340741c0-18.014815-12.325926-30.340741-30.34074-30.340741z" p-id="10931" fill="#ffffff"></path><path d="M512 0C229.451852 0 0 229.451852 0 512s229.451852 512 512 512 512-229.451852 512-512S794.548148 0 512 0zM410.548148 647.585185c-30.340741 0-54.992593-6.637037-85.333333-12.325926l-85.333334 42.666667 24.651852-73.955556c-61.62963-42.666667-97.659259-98.607407-97.659259-165.925926 0-116.622222 109.985185-208.592593 245.57037-208.592592 120.414815 0 225.659259 73.007407 247.466667 172.562963-7.585185-0.948148-16.118519-1.896296-23.703704-1.896296-116.622222 0-208.592593 87.22963-208.592592 194.37037 0 18.014815 2.844444 35.081481 7.585185 51.2-9.481481 1.896296-17.066667 1.896296-24.651852 1.896296z m361.244445 86.281482l18.014814 61.629629-67.318518-36.977777c-24.651852 6.637037-49.303704 12.325926-73.955556 12.325925-116.622222 0-208.592593-79.644444-208.592592-178.251851 0-97.659259 91.97037-178.251852 208.592592-178.251852 109.985185 0 208.592593 79.644444 208.592593 178.251852 0.948148 54.992593-36.02963 104.296296-85.333333 141.274074z" p-id="10932" fill="#ffffff"></path><path d="M716.8 512.948148c-12.325926 0-24.651852 12.325926-24.651852 24.651852s12.325926 24.651852 24.651852 24.651852c18.014815 0 30.340741-12.325926 30.340741-24.651852s-11.377778-24.651852-30.340741-24.651852z" p-id="10933" fill="#ffffff"></path></svg>